<?xml version="1.0" standalone="no"?>
<!DOCTYPE svg PUBLIC "-//W3C//DTD SVG 20010904//EN"
 "http://www.w3.org/TR/2001/REC-SVG-20010904/DTD/svg10.dtd">
<svg version="1.0" xmlns="http://www.w3.org/2000/svg"
 width="614.000000pt" height="614.000000pt" viewBox="0 0 614.000000 614.000000"
 preserveAspectRatio="xMidYMid meet">
<metadata>
Created by potrace 1.11, written by Peter Selinger 2001-2013
</metadata>
<g transform="translate(0.000000,614.000000) scale(0.100000,-0.100000)"
fill="#000000" stroke="none">
<path d="M3229 5022 c-1 -4 -1 -9 -1 -12 0 -3 3 -79 6 -170 4 -91 8 -183 11
-205 2 -22 7 -105 10 -185 3 -80 8 -167 10 -195 3 -27 7 -140 10 -250 3 -110
8 -227 10 -260 6 -80 14 -265 20 -460 3 -88 8 -209 10 -270 3 -60 7 -191 10
-290 3 -99 7 -216 10 -260 3 -44 7 -163 10 -265 3 -102 8 -221 10 -265 3 -44
7 -168 10 -275 3 -107 7 -217 10 -245 2 -27 7 -102 11 -165 3 -63 7 -117 9
-120 4 -6 104 -5 109 1 4 5 14 201 21 419 3 85 7 196 10 245 2 50 7 173 10
275 3 102 8 221 10 265 3 44 7 166 10 270 3 105 8 224 10 265 2 41 6 165 10
275 3 110 8 236 10 280 9 150 14 260 20 445 3 102 8 223 10 270 3 47 7 141 10
210 3 69 8 161 11 204 3 43 7 124 9 180 2 56 6 145 10 198 l7 97 -221 0 c-122
0 -222 -3 -222 -7z m111 -217 c1 -38 1 -76 1 -82 -1 -7 -14 -13 -29 -13 -28 0
-29 1 -31 63 -1 34 -3 71 -5 82 -2 15 4 22 23 26 14 3 29 3 33 0 4 -3 7 -37 8
-76z m91 63 c1 -26 1 -126 0 -145 -2 -21 -51 -16 -52 5 -8 116 -5 144 15 152
32 13 36 12 37 -12z m94 -77 l1 -81 -28 0 -28 0 0 83 c0 46 3 86 6 90 3 3 16
2 27 -2 20 -8 22 -16 22 -90z m89 16 c-1 -40 -3 -78 -3 -85 -1 -9 -11 -12 -28
-10 -27 3 -28 5 -28 71 0 88 6 106 38 100 24 -5 24 -7 21 -76z m-268 -227 c1
-78 -2 -90 -27 -90 -10 0 -19 6 -20 13 0 6 -2 43 -4 80 l-3 68 26 -3 c25 -3
26 -6 28 -68z m175 48 c2 -13 2 -48 -1 -78 -5 -51 -7 -55 -29 -55 -23 0 -24 3
-24 65 1 92 1 90 27 90 17 0 25 -6 27 -22z m83 -25 c-1 -27 -2 -62 -3 -78 -1
-25 -6 -31 -26 -33 -26 -2 -27 1 -27 63 0 94 0 95 30 95 27 0 28 -2 26 -47z
m-256 -233 c4 -76 -1 -90 -26 -83 -17 4 -20 14 -19 71 0 77 1 81 25 78 14 -2
18 -15 20 -66z m86 -2 c-3 -84 -3 -86 -19 -84 -25 4 -29 14 -30 79 -1 64 8 82
35 67 12 -6 15 -22 14 -62z m80 -6 c-1 -37 -3 -70 -3 -74 -1 -5 -11 -6 -23 -4
-21 3 -23 8 -24 72 -1 71 6 85 35 77 15 -4 17 -15 15 -71z m64 -73 c-25 -17
-33 -1 -35 69 -2 66 0 71 20 74 21 3 22 -1 25 -66 2 -49 -1 -72 -10 -77z
m-221 -129 c1 -67 0 -70 -23 -70 -23 0 -24 3 -24 70 0 66 1 70 23 70 21 0 23
-4 24 -70z m75 58 c2 -7 4 -38 3 -68 0 -49 -3 -55 -23 -58 -21 -3 -22 0 -22
67 0 63 2 71 19 71 10 0 21 -6 23 -12z m150 0 c4 -11 3 -41 -1 -116 -1 -8 -10
-12 -23 -10 -17 2 -22 9 -21 36 1 17 2 48 2 67 1 27 5 35 20 35 10 0 21 -6 23
-12z m-147 -238 c0 -58 -2 -65 -20 -65 -18 0 -20 7 -21 60 -1 69 2 77 24 73
14 -3 17 -16 17 -68z m139 15 c-2 -83 -3 -85 -24 -85 -18 0 -20 7 -20 63 0 68
5 79 30 75 11 -3 15 -15 14 -53z m-209 -193 c1 -54 -1 -62 -17 -62 -19 0 -20
7 -20 75 1 55 0 54 19 51 14 -2 18 -14 18 -64z m66 56 c3 -5 5 -32 4 -60 -1
-45 -4 -53 -20 -53 -17 0 -19 7 -18 53 0 28 1 57 2 62 1 11 23 9 32 -2z m75
-39 c3 -60 -4 -79 -27 -79 -17 0 -19 7 -19 58 0 64 3 71 28 68 11 -2 16 -15
18 -47z m59 -15 c0 -52 -2 -59 -20 -59 -14 0 -19 6 -18 23 0 12 1 40 2 61 1
31 5 39 19 37 14 -3 17 -13 17 -62z m-195 -168 c0 -89 -31 -84 -38 7 -3 42 -1
47 17 47 19 0 21 -6 21 -54z m69 12 c-2 -59 -7 -75 -24 -75 -12 0 -15 14 -15
59 0 52 2 58 20 58 18 0 21 -6 19 -42z m65 0 c-1 -24 -3 -50 -3 -60 -1 -10 -8
-15 -18 -14 -14 2 -19 15 -21 59 -3 54 -2 57 21 57 22 0 24 -4 21 -42z m-126
-173 c0 -46 -3 -55 -17 -53 -12 2 -17 16 -18 56 -2 44 1 52 16 52 16 0 19 -8
19 -55z m58 3 c-1 -39 -5 -53 -16 -56 -12 -2 -16 10 -18 53 -2 48 0 55 16 55
16 0 19 -8 18 -52z m64 -3 c0 -48 -2 -55 -20 -55 -18 0 -20 7 -20 55 0 48 2
55 20 55 18 0 20 -7 20 -55z m56 3 c-2 -41 -6 -54 -19 -56 -14 -3 -17 5 -17
52 0 48 3 56 19 56 16 0 18 -7 17 -52z m-178 -158 c2 -23 -2 -48 -8 -54 -16
-16 -26 5 -23 56 2 54 1 50 16 46 6 -3 13 -24 15 -48z m58 -1 c1 -52 -2 -60
-21 -53 -10 4 -13 19 -11 52 5 58 3 55 19 49 7 -2 12 -22 13 -48z m60 4 c0
-27 -5 -51 -10 -55 -20 -13 -31 11 -28 56 3 35 8 46 21 46 14 0 17 -9 17 -47z
m52 13 c5 -40 -5 -73 -22 -73 -11 0 -13 12 -11 51 3 62 2 59 18 54 6 -3 13
-17 15 -32z m-108 -167 c0 -39 -3 -47 -15 -43 -10 4 -15 21 -15 55 0 39 3 47
15 43 10 -4 15 -21 15 -55z m-50 0 c0 -43 -3 -50 -16 -45 -9 3 -18 6 -20 6 -2
0 -4 20 -4 45 0 38 3 45 20 45 17 0 20 -7 20 -51z m104 5 c-4 -51 -7 -59 -23
-49 -6 3 -11 26 -11 51 0 36 3 44 18 44 16 0 18 -7 16 -46z m49 -3 c-2 -48 -6
-56 -22 -46 -6 3 -11 26 -11 51 0 38 3 45 18 42 13 -3 17 -12 15 -47z m-153
-147 c0 -31 -4 -44 -14 -44 -9 0 -15 15 -18 46 -4 51 -2 55 18 47 9 -3 14 -21
14 -49z m48 3 c-5 -62 -28 -60 -28 2 0 41 3 49 16 44 11 -4 14 -17 12 -46z
m52 3 c0 -35 -14 -60 -26 -47 -5 5 -8 55 -5 84 0 7 8 10 16 7 10 -4 15 -20 15
-44z m47 -6 c-1 -33 -5 -44 -17 -44 -11 0 -15 8 -14 28 1 15 3 37 3 49 1 15 6
21 15 17 10 -4 14 -20 13 -50z m-146 -96 c0 -7 2 -23 3 -35 3 -25 -10 -51 -20
-41 -9 10 -15 68 -8 79 8 13 24 11 25 -3z m94 -32 c-1 -22 -7 -42 -13 -44 -13
-4 -14 0 -14 48 0 38 0 37 15 37 9 0 13 -13 12 -41z m45 -2 c0 -32 -4 -44 -12
-41 -12 3 -20 62 -11 80 11 21 23 2 23 -39z m-135 -137 c0 -20 -4 -37 -10 -38
-12 0 -23 40 -17 64 8 31 27 12 27 -26z m45 3 c0 -25 -5 -40 -12 -40 -8 0 -13
15 -13 40 -1 26 4 40 12 40 8 0 13 -14 13 -40z m40 -7 c-1 -42 -2 -46 -14 -31
-13 18 -10 78 5 78 5 0 9 -21 9 -47z m46 4 c3 -28 0 -37 -12 -37 -11 0 -14 10
-12 40 2 50 20 47 24 -3z m-128 -120 c2 -27 -1 -37 -11 -37 -10 0 -15 12 -15
41 -1 51 22 48 26 -4z m42 3 c0 -22 -4 -40 -10 -40 -10 0 -12 10 -12 50 0 28
1 30 12 30 6 0 10 -18 10 -40z m40 -1 c0 -28 -4 -39 -12 -36 -12 3 -18 51 -10
70 9 21 22 2 22 -34z m42 19 c5 -30 -1 -58 -13 -58 -5 0 -9 18 -9 40 0 43 15
55 22 18z m-122 -140 c0 -30 -3 -39 -11 -31 -16 16 -18 73 -2 73 9 0 13 -14
13 -42z m40 7 c0 -22 -5 -35 -13 -35 -8 0 -13 9 -11 23 1 12 3 28 3 35 2 29
21 9 21 -23z m-40 -116 c0 -24 -4 -38 -10 -34 -5 3 -10 22 -10 41 0 19 5 34
10 34 6 0 10 -18 10 -41z m37 6 c0 -34 -16 -51 -18 -20 -1 8 -2 21 -3 28 -3
15 3 27 13 27 4 0 8 -16 8 -35z m38 -7 c-2 -34 -25 -34 -25 0 0 16 3 32 7 35
10 10 20 -10 18 -35z m-67 -102 c3 -20 0 -27 -10 -24 -7 3 -13 17 -13 31 -1
35 19 29 23 -7z m32 -7 c0 -18 -4 -28 -10 -24 -5 3 -10 20 -10 36 0 18 4 28
10 24 6 -3 10 -20 10 -36z m32 11 c3 -20 0 -30 -9 -30 -8 0 -13 12 -13 30 0
17 4 30 9 30 5 0 11 -13 13 -30z m34 5 c2 -10 -1 -26 -6 -34 -10 -17 -12 -13
-15 32 -2 30 17 32 21 2z"/>
<path d="M2176 4741 c-4 -14 -29 -166 -42 -256 -3 -16 -10 -52 -16 -80 -7 -27
-13 -57 -13 -65 -1 -8 -5 -35 -9 -60 -4 -25 -10 -58 -12 -75 -3 -16 -7 -37 -9
-45 -2 -8 -6 -33 -10 -55 -3 -22 -12 -78 -20 -125 -8 -47 -17 -103 -20 -125
-4 -22 -10 -56 -15 -75 -5 -19 -12 -55 -15 -80 -3 -25 -7 -52 -10 -60 -2 -8
-7 -35 -10 -60 -3 -25 -8 -52 -10 -60 -2 -8 -7 -35 -10 -60 -4 -25 -10 -62
-15 -82 -7 -35 -6 -38 14 -39 11 0 46 -2 77 -4 l57 -3 6 51 c14 105 17 123 26
167 6 25 12 56 14 70 3 25 3 25 102 22 54 -2 100 -5 102 -7 4 -4 6 -15 33
-245 6 -58 13 -107 15 -109 2 -2 37 -5 79 -7 l77 -5 -6 48 c-3 26 -8 75 -11
108 -3 33 -8 76 -10 95 -2 19 -7 69 -10 110 -3 41 -8 82 -10 90 -2 8 -7 53
-10 100 -3 47 -7 96 -10 110 -2 14 -7 57 -10 95 -3 39 -7 81 -10 95 -2 14 -7
66 -10 115 -4 50 -8 92 -10 95 -3 5 -11 73 -20 178 -3 31 -8 77 -11 102 -2 25
-7 65 -9 89 -2 24 -6 45 -8 47 -2 2 -49 5 -105 7 -86 3 -102 1 -106 -12z m110
-379 c1 -31 5 -87 9 -123 3 -37 8 -104 11 -150 2 -46 6 -97 8 -114 3 -16 8
-60 11 -97 l7 -66 -38 3 c-22 2 -61 4 -87 4 -41 1 -48 4 -43 19 3 9 8 37 11
62 4 24 8 47 10 50 1 3 6 28 9 55 4 28 9 57 12 66 2 10 6 30 8 45 3 16 14 76
25 134 24 123 29 150 30 169 2 37 15 -6 17 -57z"/>
<path d="M1348 4712 l-57 -3 4 -132 c2 -73 7 -202 10 -287 4 -85 8 -218 10
-295 1 -77 6 -219 10 -315 5 -96 9 -215 10 -265 3 -123 4 -127 13 -121 5 3 39
6 75 7 40 1 67 6 68 13 2 21 -3 241 -6 267 -2 15 -6 92 -10 172 l-7 146 56 0
c35 0 61 -6 70 -15 33 -32 57 -174 69 -409 8 -147 47 -203 139 -199 29 1 64 3
77 3 l24 1 -20 23 c-44 48 -70 135 -78 265 -12 177 -35 297 -70 359 l-23 43
23 18 c56 45 87 149 87 302 0 232 -52 356 -172 408 -34 15 -166 21 -302 14z
m230 -187 c61 -13 88 -85 87 -231 -1 -85 -22 -161 -52 -185 -18 -16 -33 -20
-95 -26 -36 -4 -48 -1 -49 9 -8 101 -19 430 -15 437 5 8 80 6 124 -4z"/>
<path d="M3925 4689 c-46 -13 -113 -75 -141 -130 -13 -27 -22 -49 -20 -49 3 0
0 -15 -6 -32 -6 -20 -11 -222 -13 -516 -3 -443 -2 -488 15 -549 10 -36 31 -84
47 -106 75 -108 265 -126 363 -34 25 24 71 103 76 132 20 102 24 200 24 575 1
453 -2 505 -42 584 -56 110 -180 161 -303 125z m125 -166 c55 -32 55 -32 58
-518 2 -318 0 -466 -8 -505 -31 -143 -112 -173 -176 -64 l-28 48 2 450 c2 486
6 527 53 577 31 33 58 36 99 12z"/>
<path d="M2639 4561 c-1 -131 -6 -328 -13 -516 -4 -93 -9 -258 -11 -365 -3
-107 -7 -254 -10 -326 l-6 -131 43 -6 c79 -11 272 -5 321 10 86 26 145 108
161 223 9 66 24 475 26 740 2 230 -14 301 -83 372 -62 64 -101 74 -324 82
l-103 4 -1 -87z m293 -127 c57 -29 63 -52 62 -229 0 -88 -4 -245 -8 -350 -4
-104 -9 -231 -11 -282 -6 -155 -42 -187 -201 -174 -14 1 -15 17 -10 134 3 72
9 227 12 342 3 116 7 244 9 285 2 41 4 122 5 180 1 58 4 108 7 113 7 11 102
-2 135 -19z"/>
<path d="M384 3176 c-65 -20 -103 -48 -135 -96 -47 -70 -79 -210 -56 -239 9
-11 9 -13 0 -8 -8 5 -12 -19 -12 -90 0 -54 -3 -163 -7 -243 -12 -307 -11 -523
4 -590 33 -152 109 -214 260 -212 72 0 137 34 184 96 20 27 39 62 42 77 3 16
6 32 7 37 1 4 6 23 11 42 10 41 22 465 23 795 0 221 -1 232 -24 282 -31 69
-95 127 -162 147 -62 19 -80 19 -135 2z m111 -170 c46 -30 58 -79 56 -220 -7
-441 -18 -752 -28 -806 -12 -74 -52 -121 -102 -122 -38 -1 -59 16 -81 64 -18
41 -19 76 -5 591 11 433 9 418 50 472 26 35 74 44 110 21z"/>
<path d="M5611 3128 c-57 -10 -109 -51 -143 -113 -54 -99 -52 -283 6 -419 28
-68 130 -199 232 -300 57 -57 138 -200 148 -262 14 -81 -34 -183 -87 -185
-102 -5 -142 40 -169 186 -3 11 -9 19 -14 18 -6 -1 -39 -3 -73 -4 l-63 -2 6
-51 c25 -193 145 -336 283 -338 78 0 127 18 176 65 105 103 123 347 38 514
-27 54 -111 162 -200 258 -104 113 -146 179 -165 259 -14 56 -5 148 16 173 22
27 74 44 102 33 34 -13 47 -42 50 -108 l1 -57 79 -3 79 -3 -5 89 c-6 96 -23
146 -69 191 -54 55 -137 76 -228 59z"/>
<path d="M3865 3109 c-4 -12 -8 -31 -10 -42 -1 -12 -5 -42 -9 -67 -4 -25 -10
-58 -12 -75 -3 -16 -9 -46 -14 -65 -5 -19 -12 -57 -15 -84 -4 -28 -8 -53 -10
-56 -2 -3 -6 -30 -10 -60 -3 -29 -8 -56 -9 -59 -2 -3 -7 -31 -11 -61 -4 -30
-9 -58 -11 -61 -2 -4 -6 -30 -9 -59 -3 -29 -7 -55 -9 -59 -3 -4 -7 -28 -10
-55 -3 -27 -10 -65 -15 -85 -6 -20 -15 -65 -21 -101 -14 -92 -20 -122 -25
-146 -2 -11 -7 -43 -10 -70 -3 -27 -8 -57 -11 -68 -3 -10 -9 -42 -13 -72 l-8
-54 79 0 c67 0 78 2 79 18 1 27 8 85 14 109 3 12 8 44 11 71 3 27 9 63 13 78
l8 29 97 -2 c54 -1 101 -4 103 -7 3 -3 7 -22 9 -43 1 -20 5 -57 9 -83 7 -53
11 -81 20 -167 l7 -63 49 -1 c27 -1 61 -1 77 -2 30 -1 29 -9 18 133 -8 93 -15
167 -21 200 -2 14 -7 59 -10 100 -3 41 -8 86 -10 100 -3 14 -7 63 -10 110 -3
47 -7 92 -10 100 -2 8 -7 55 -10 105 -4 49 -8 92 -10 95 -3 5 -13 90 -20 160
-9 95 -17 189 -20 220 -5 65 -17 145 -21 150 -3 2 -49 5 -104 7 -92 2 -99 1
-105 -18z m120 -544 c4 -66 9 -123 10 -126 2 -3 7 -60 10 -127 l7 -122 -69 0
c-77 0 -98 9 -89 36 3 11 17 82 30 159 14 77 32 172 40 210 8 39 20 104 27
145 l13 75 7 -65 c4 -36 10 -119 14 -185z"/>
<path d="M1890 2427 l0 -694 73 1 72 1 0 462 c0 254 2 459 5 456 3 -2 5 -8 6
-11 0 -4 4 -26 8 -50 4 -23 9 -52 11 -65 9 -67 46 -278 55 -312 5 -22 12 -53
15 -69 14 -92 19 -122 20 -126 1 -3 5 -25 9 -50 5 -25 10 -52 11 -60 2 -8 8
-51 15 -94 17 -114 24 -128 57 -122 16 2 31 5 34 5 3 1 6 7 6 14 0 19 11 79
38 210 13 67 27 134 29 150 3 15 10 53 15 85 6 31 13 71 16 87 5 30 10 59 20
105 3 14 7 43 11 65 3 22 10 58 16 80 5 22 12 50 14 63 2 12 6 34 9 48 2 15 6
29 9 32 3 2 5 -202 5 -454 0 -253 0 -466 0 -475 1 -12 14 -15 71 -15 l70 0 0
713 0 713 -110 0 c-98 0 -110 -2 -111 -17 0 -10 -2 -27 -5 -38 -2 -11 -6 -40
-9 -65 -4 -25 -8 -52 -10 -60 -2 -8 -7 -35 -10 -60 -3 -25 -8 -57 -11 -72 -3
-15 -7 -40 -9 -57 -2 -16 -9 -56 -14 -88 -6 -32 -12 -71 -15 -88 -7 -50 -18
-119 -21 -135 -1 -8 -6 -40 -11 -70 -4 -30 -9 -58 -10 -62 -1 -5 -2 -21 -3
-38 -1 -34 -16 -41 -18 -9 -1 11 -7 44 -12 72 -6 29 -13 66 -15 82 -2 17 -7
48 -11 70 -3 22 -8 56 -10 75 -2 19 -7 53 -11 75 -4 22 -8 51 -10 65 -1 14
-10 72 -19 130 -9 58 -18 119 -20 135 -3 17 -10 58 -16 93 l-11 62 -109 0
-109 0 0 -693z"/>
<path d="M854 3102 l-30 -3 -1 -715 0 -714 216 0 216 0 -2 62 c-1 35 -2 75 -2
91 l-1 27 -140 0 -140 0 0 625 c0 588 -1 625 -17 626 -10 0 -29 1 -43 2 -14 1
-39 1 -56 -1z"/>
<path d="M2887 3084 c-1 -1 -44 -4 -95 -5 l-93 -3 5 -200 c4 -111 9 -255 12
-321 2 -66 7 -187 9 -270 2 -82 7 -226 11 -320 4 -93 7 -203 8 -242 1 -82 -5
-77 91 -73 65 2 71 6 68 47 -1 21 -5 128 -8 238 -4 110 -8 222 -9 248 -2 58 3
62 99 66 39 2 84 9 100 16 32 15 75 49 75 60 0 4 9 18 19 32 28 34 53 156 55
269 7 303 -82 452 -275 458 -38 1 -71 1 -72 0z m110 -188 c52 -17 84 -120 80
-266 -2 -108 -19 -149 -77 -187 -32 -22 -119 -33 -121 -15 -2 32 -10 222 -12
334 -4 133 -3 137 17 140 31 5 88 2 113 -6z"/>
<path d="M5207 3084 c-2 -1 -219 -13 -256 -14 -11 0 -12 -26 -7 -142 4 -79 9
-213 11 -298 4 -163 13 -360 20 -470 3 -36 7 -164 11 -285 3 -127 10 -222 15
-226 9 -5 206 -3 359 5 l55 2 -3 90 c-2 49 -6 91 -9 94 -2 3 -63 3 -134 2
l-129 -4 -1 24 c-2 48 -7 237 -9 331 -2 54 0 100 3 104 4 3 46 7 94 8 49 2 93
3 98 4 6 1 9 36 7 92 l-3 90 -99 -3 c-54 -1 -102 0 -106 4 -7 8 -10 64 -14
277 -3 144 -19 129 138 132 l103 3 -3 83 c-1 46 -4 87 -8 91 -4 7 -125 12
-133 6z"/>
<path d="M4336 3012 c-4 -8 -16 -324 -21 -567 -2 -82 -6 -222 -10 -310 -3 -88
-8 -246 -11 -350 l-4 -191 38 -4 c20 -2 91 -3 157 -3 155 -1 209 16 264 81 57
66 70 127 76 361 2 86 7 244 11 351 11 313 8 368 -22 463 -17 50 -74 116 -124
142 -17 9 -30 13 -30 11 0 -3 -12 -1 -26 4 -30 12 -292 22 -298 12z m293 -210
c61 -44 62 -59 48 -542 -9 -303 -13 -359 -27 -408 -19 -68 -32 -76 -121 -81
l-80 -3 5 188 c3 104 8 261 12 349 5 146 12 375 13 484 l1 44 62 -6 c37 -3 71
-13 87 -25z"/>
<path d="M1595 2918 c-11 -46 -20 -87 -21 -93 -1 -5 -13 -68 -28 -140 -14 -71
-28 -141 -31 -155 -12 -64 -17 -80 -26 -80 -5 0 -9 2 -9 4 0 3 -7 36 -15 75
-8 39 -17 85 -20 103 -3 18 -12 61 -20 96 -8 34 -17 77 -20 95 -3 17 -8 40
-11 49 -3 9 -7 27 -9 40 -16 84 -9 78 -92 78 l-75 0 5 -27 c4 -16 14 -62 23
-103 8 -41 18 -86 20 -100 3 -14 9 -38 14 -55 5 -16 11 -41 14 -55 15 -80 68
-320 76 -346 6 -17 13 -42 15 -55 3 -13 9 -46 15 -74 5 -28 9 -169 7 -318 -2
-174 1 -271 8 -276 5 -4 39 -7 75 -6 l65 0 5 320 c4 262 8 328 22 365 9 25 35
124 58 220 23 96 44 182 46 190 20 77 57 226 68 273 l14 57 -77 0 -77 0 -19
-82z"/>
</g>
</svg>
